<svg xmlns="http://www.w3.org/2000/svg" width="512" height="512" id="coffee"><g fill="none" fill-rule="evenodd"><path fill="#FEFEFE" d="M328.138 270.136H146.209l-41.106-170.06h264.141z"></path><path fill="#010202" d="m320.89 100.073-41.106 170.06h48.352l41.106-170.06z" opacity=".15"></path><path fill="#2E2E30" d="M154.372 259.815h165.606l36.112-149.423H118.26l36.112 149.423Zm173.764 20.637H146.207c-4.787 0-8.952-3.267-10.07-7.904l-41.1-170.06a10.304 10.304 0 0 1 1.927-8.799 10.401 10.401 0 0 1 8.144-3.934h264.134a10.39 10.39 0 0 1 8.144 3.934 10.282 10.282 0 0 1 1.927 8.799l-41.106 170.06c-1.12 4.637-5.277 7.904-10.071 7.904Z"></path><path fill="#FEFEFE" d="M328.138 306.317H146.209L104.89 480.27c-1.243 8.978 6.085 16.944 15.59 16.944h233.39c9.504 0 16.833-7.966 15.596-16.944l-41.327-173.953Z"></path><path fill="#010202" d="m369.462 480.268-41.327-173.953h-48.352l41.327 173.953c1.237 8.978-6.092 16.944-15.59 16.944h48.352c9.498 0 16.827-7.966 15.59-16.944" opacity=".15"></path><path fill="#2E2E30" d="M115.12 482.025c-.083 1.362.531 2.387 1.09 3.013 1.03 1.183 2.584 1.857 4.263 1.857h233.396c1.685 0 3.24-.674 4.269-1.857.56-.626 1.174-1.651 1.091-3.013l-39.29-165.39H154.41l-39.29 165.39Zm238.749 25.508H120.473c-7.668 0-14.92-3.254-19.88-8.93-4.78-5.455-6.949-12.65-5.975-19.743.049-.323.11-.646.187-.97l41.32-173.954c1.105-4.65 5.284-7.938 10.085-7.938h181.929c4.8 0 8.98 3.288 10.084 7.938l41.32 173.954c.077.324.139.647.187.97.974 7.093-1.195 14.288-5.975 19.743-4.96 5.676-12.212 8.93-19.886 8.93Z"></path><path fill="#FEFEFE" d="M236.666 61.62c-9.532 0-17.331-7.767-17.331-17.26V30.526c0-9.5 7.799-17.267 17.33-17.267 9.533 0 17.332 7.766 17.332 17.267V44.36c0 9.493-7.799 17.26-17.331 17.26"></path><path fill="#2E2E30" d="M236.668 23.578c-3.848 0-6.977 3.117-6.977 6.948V44.36c0 3.756 3.199 6.941 6.977 6.941 3.778 0 6.97-3.185 6.97-6.94V30.525c0-3.831-3.123-6.948-6.97-6.948m0 48.36c-15.272 0-27.699-12.375-27.699-27.578V30.526c0-15.21 12.427-27.585 27.699-27.585 15.272 0 27.692 12.375 27.692 27.585V44.36c0 15.203-12.42 27.579-27.692 27.579"></path><path fill="#FEFEFE" d="m222.868 54.658-115.57 45.417h261.945L251.527 54.562a35.442 35.442 0 0 0-28.66.096"></path><path fill="#2E2E30" d="M161.772 89.757h152.15L247.776 64.18c-7.28-3.171-14.263-2.979-20.674-.103l-65.33 25.68Zm207.472 20.637H107.3c-4.974 0-9.25-3.522-10.175-8.392-.933-4.87 1.747-9.707 6.369-11.53l115.568-45.416c10.886-4.864 24.88-5.084 36.637.062l117.296 45.34c4.649 1.796 7.356 6.632 6.438 11.516-.92 4.877-5.202 8.42-10.189 8.42Z"></path><path fill="#FEFEFE" d="M107.3 100.073H42.356l103.854 170.06z"></path><path fill="#2E2E30" d="m60.791 110.394 61.159 100.154-22.912-100.154H60.79Zm85.424 170.06c-3.53 0-6.928-1.802-8.855-4.96L33.513 105.434a10.28 10.28 0 0 1-.186-10.415 10.37 10.37 0 0 1 9.035-5.262h64.937c4.842 0 9.028 3.33 10.105 8.028l38.91 170.06c1.126 4.925-1.506 9.947-6.21 11.846-1.27.523-2.59.763-3.889.763Z"></path><path fill="#513A2B" d="M157.695 306.317h161.158v-36.178H157.695z"></path><path fill="#2E2E30" d="M168.05 295.998h140.435V280.45H168.049v15.547Zm150.796 20.637H157.688c-5.72 0-10.361-4.622-10.361-10.318v-36.185c0-5.696 4.642-10.319 10.361-10.319h161.158c5.726 0 10.361 4.623 10.361 10.32v36.184c0 5.696-4.635 10.318-10.361 10.318Z"></path><path fill="#513A2B" d="M378.234 287.334c50.072 0 90.66-40.422 90.66-90.29v-48.601c0-23.864-19.423-43.208-43.392-43.208H369.24l-9.056 31.617h56.876c10.092 0 18.277 8.151 18.277 18.202v41.013c0 31.41-25.564 56.87-57.104 56.87h-3.28c-9.54 0-17.27 7.698-17.27 17.199 0 9.5 7.73 17.198 17.27 17.198h3.28Z"></path><path fill="#2E2E30" d="M374.952 263.254c-3.813 0-6.908 3.082-6.908 6.88 0 3.797 3.095 6.879 6.908 6.879h3.288c44.276 0 80.299-35.875 80.299-79.97v-48.595c0-18.14-14.824-32.896-33.039-32.896h-48.435l-3.142 10.979h43.137c15.79 0 28.638 12.795 28.638 28.52v41.014c0 37.052-30.262 67.19-67.458 67.19h-3.288Zm3.288 34.396h-3.288c-15.238 0-27.63-12.341-27.63-27.516 0-15.176 12.392-27.517 27.63-27.517h3.288c25.771 0 46.736-20.878 46.736-46.552v-41.013c0-4.341-3.55-7.884-7.916-7.884h-56.876c-3.247 0-6.314-1.52-8.269-4.107a10.296 10.296 0 0 1-1.692-9.046l9.056-31.616c1.27-4.424 5.34-7.485 9.967-7.485H425.5c29.64 0 53.761 24.015 53.761 53.534v48.594c0 55.474-45.32 100.608-101.021 100.608Z"></path><path fill="#FEFEFE" d="m166.693 100.073 25.04 170.06"></path><path fill="#2E2E30" d="M191.722 280.452c-5.056 0-9.483-3.687-10.236-8.819l-25.04-170.06c-.836-5.634 3.088-10.883 8.745-11.708 5.72-.798 10.928 3.075 11.756 8.716l25.04 170.053c.829 5.64-3.088 10.883-8.745 11.708-.511.076-1.022.11-1.52.11"></path><path fill="#FEFEFE" d="m191.733 306.317-34.04 190.897"></path><path fill="#2E2E30" d="M157.704 507.533c-.601 0-1.216-.055-1.83-.159-5.63-.997-9.388-6.349-8.386-11.97l34.047-190.897c1.001-5.606 6.368-9.32 12.012-8.35 5.636.997 9.394 6.349 8.385 11.969l-34.04 190.897c-.89 4.994-5.263 8.51-10.188 8.51"></path><path fill="#FEFEFE" d="m308.872 100.073-25.04 170.06"></path><path fill="#2E2E30" d="M283.847 280.452c-.498 0-1.009-.034-1.52-.11-5.657-.825-9.574-6.067-8.745-11.708l25.04-170.053c.828-5.641 6.064-9.521 11.756-8.716 5.657.825 9.58 6.074 8.745 11.708l-25.04 170.06c-.753 5.132-5.18 8.82-10.236 8.82"></path><path fill="#FEFEFE" d="m283.832 306.317 34.04 190.897"></path><path fill="#2E2E30" d="M317.857 507.533c-4.925 0-9.297-3.516-10.188-8.51l-34.033-190.897c-1.009-5.62 2.75-10.972 8.386-11.97 5.63-.977 11.01 2.745 12.012 8.351l34.04 190.898c1.001 5.62-2.756 10.972-8.386 11.97-.615.103-1.23.158-1.83.158"></path></g></svg>