<svg xmlns="http://www.w3.org/2000/svg" width="512" height="512" id="cup"><g fill="none" fill-rule="evenodd"><path fill="#FEFEFE" d="M498.005 259.021c0 133.92-108.373 242.489-242.052 242.489C122.273 501.51 13.9 392.94 13.9 259.02c0-133.92 108.373-242.489 242.052-242.489 133.679 0 242.052 108.569 242.052 242.489"></path><path fill="#010202" d="M424.479 85.043c25.583 38.45 40.52 84.625 40.52 134.304 0 133.92-108.366 242.489-242.052 242.489-65.53 0-124.94-26.133-168.523-68.511C97.81 458.529 171.86 501.51 255.95 501.51c133.686 0 242.052-108.569 242.052-242.489 0-68.273-28.203-129.907-73.522-173.978" opacity=".15"></path><path fill="#2E2E30" d="M255.952 26.45c-128.01 0-232.151 104.33-232.151 232.57s104.142 232.57 232.151 232.57c128.01 0 232.151-104.33 232.151-232.57S383.961 26.45 255.952 26.45m0 484.977c-138.926 0-251.953-113.23-251.953-252.407C4 119.843 117.026 6.612 255.952 6.612s251.953 113.23 251.953 252.408c0 139.177-113.027 252.407-251.953 252.407"></path><path fill="#FEFEFE" d="M441.938 277.524h-77.47c-12.025 0-21.767-9.767-21.767-21.808 0-12.048 9.742-21.807 21.768-21.807h77.47c12.025 0 21.768 9.76 21.768 21.807 0 12.041-9.743 21.808-21.769 21.808"></path><path fill="#2E2E30" d="M364.466 243.821c-6.54 0-11.867 5.343-11.867 11.896 0 6.553 5.326 11.889 11.867 11.889h77.47c6.547 0 11.867-5.336 11.867-11.89 0-6.552-5.32-11.895-11.867-11.895h-77.47Zm77.47 43.622h-77.47c-17.465 0-31.669-14.236-31.669-31.726 0-17.497 14.204-31.733 31.67-31.733h77.469c17.465 0 31.669 14.236 31.669 31.733 0 17.49-14.204 31.726-31.67 31.726Z"></path><path fill="#FEFEFE" d="M393.502 259.021c0 76.102-61.583 137.795-137.547 137.795-75.972 0-137.554-61.693-137.554-137.795 0-76.102 61.582-137.795 137.554-137.795 75.964 0 137.547 61.693 137.547 137.795"></path><path fill="#2E2E30" d="M255.952 131.143c-70.38 0-127.646 57.369-127.646 127.877 0 70.507 57.265 127.876 127.646 127.876 70.387 0 127.653-57.369 127.653-127.876 0-70.508-57.266-127.877-127.653-127.877m0 275.59c-81.298 0-147.448-66.262-147.448-147.713s66.15-147.714 147.448-147.714c81.304 0 147.454 66.263 147.454 147.714 0 81.45-66.15 147.713-147.454 147.713"></path><path fill="#513A2B" d="M358.1 259.021c0 56.516-45.734 102.333-102.148 102.333-56.414 0-102.149-45.817-102.149-102.333s45.735-102.333 102.149-102.333 102.149 45.817 102.149 102.333"></path><path fill="#010202" d="M290.97 162.99c20.898 18.74 34.125 45.884 34.125 76.195 0 56.516-45.728 102.333-102.142 102.333-12.323 0-24.085-2.3-35.022-6.308 18.072 16.207 41.86 26.145 68.024 26.145 56.414 0 102.142-45.817 102.142-102.333 0-44.177-27.986-81.695-67.126-96.031" opacity=".15"></path><path fill="#2E2E30" d="M255.952 166.607c-50.863 0-92.248 41.46-92.248 92.415 0 50.955 41.385 92.414 92.248 92.414 50.863 0 92.248-41.46 92.248-92.414 0-50.955-41.385-92.415-92.248-92.415m0 204.666c-61.78 0-112.05-50.36-112.05-112.251 0-61.899 50.27-112.252 112.05-112.252 61.78 0 112.05 50.353 112.05 112.252 0 61.891-50.27 112.251-112.05 112.251"></path></g></svg>