<svg xmlns="http://www.w3.org/2000/svg" width="512" height="512" id="cup"><g fill="none" fill-rule="evenodd"><path fill="#FEFEFE" d="M218.61 223.454H11.74C26.71 322.7 57.704 421.472 116.188 469.155c8.389 6.841 18.616 10.495 29.11 10.495h146.625c10.493 0 20.72-3.654 29.11-10.495 58.483-47.683 89.478-146.455 104.448-245.7H218.61Z"></path><path fill="#010202" d="M362.884 223.455c-14.977 99.246-45.964 198.017-104.448 245.7-8.396 6.842-18.616 10.495-29.117 10.495h62.6c10.501 0 20.72-3.653 29.117-10.494 58.484-47.684 89.471-146.455 104.449-245.701h-62.6Z" opacity=".15"></path><path fill="#FEFEFE" d="M434.14 223.455c-2.981 0-5.892.295-8.772.715-2.614 17.218-5.728 34.406-9.367 51.329 3.811-2.371 8.162-3.832 12.873-3.832 14.374 0 26.034 7.688 26.034 28.202 0 25.241-31.246 40.112-45.62 40.112-4.962 0-7.23-2.954-8.123-7.416-6.753 21.619-14.672 42.095-23.835 60.876 2.254.785 4.71 1.337 7.676 1.337 36.05 0 114.41-37.306 114.41-100.599 0-51.446-29.226-70.724-65.276-70.724"></path><path fill="#010202" d="M434.14 223.455c-2.981 0-5.892.295-8.772.715-2.614 17.218-5.728 34.406-9.367 51.329 3.811-2.371 8.162-3.832 12.873-3.832 14.374 0 26.034 7.688 26.034 28.202 0 25.241-31.246 40.112-45.62 40.112-4.962 0-7.23-2.954-8.123-7.416-6.753 21.619-14.672 42.095-23.835 60.876 2.254.785 4.71 1.337 7.676 1.337 36.05 0 114.41-37.306 114.41-100.599 0-51.446-29.226-70.724-65.276-70.724" opacity=".15"></path><path fill="#2E2E30" d="M25.469 235.117c13.216 79.516 40.823 178.272 98.165 225.023 6.3 5.13 13.788 7.851 21.66 7.851h146.625c7.88 0 15.376-2.72 21.668-7.851 57.341-46.758 84.948-145.507 98.165-225.023H25.469Zm266.45 256.195H145.294c-13.178 0-26.152-4.672-36.543-13.137C42.355 424.047 13.035 310.723.13 225.182a11.598 11.598 0 0 1 2.708-9.336 11.793 11.793 0 0 1 8.897-4.05h413.749c3.42 0 6.667 1.477 8.897 4.05a11.63 11.63 0 0 1 2.715 9.336c-12.911 85.54-42.232 198.857-108.612 252.993-10.399 8.465-23.389 13.137-36.566 13.137Z"></path><path fill="#2E2E30" d="M407.252 351.557c-3.701 10.658-7.66 20.873-11.847 30.582 34.415-5.9 92.273-38.114 92.273-87.959 0-38.681-17.544-58.543-52.154-59.056a878.387 878.387 0 0 1-4.405 24.93c21.972.956 35.525 16.03 35.525 39.816 0 33.505-37.889 51.773-57.357 51.773-.689 0-1.37-.031-2.035-.086m-22.246 54.882c-3.944 0-7.724-.653-11.566-1.998a11.676 11.676 0 0 1-6.956-6.56 11.586 11.586 0 0 1 .29-9.523c8.63-17.685 16.432-37.617 23.185-59.25 1.588-5.1 6.471-8.52 11.84-8.187a11.732 11.732 0 0 1 10.21 7.168c10.917-1.703 31.16-12.531 31.16-28.219 0-14.536-6.87-16.542-14.288-16.542-2.23 0-4.46.692-6.652 2.052a11.816 11.816 0 0 1-12.958-.326c-3.858-2.69-5.736-7.408-4.75-11.995 3.522-16.34 6.62-33.372 9.242-50.63.774-5.083 4.789-9.056 9.914-9.802 3.905-.568 7.23-.832 10.47-.832 48.226 0 77.006 30.8 77.006 82.385 0 69.636-81.67 112.26-126.147 112.26M142.508 171.415c-6.48 0-11.738-5.216-11.738-11.66V85.967c0-6.437 5.259-11.66 11.738-11.66 6.48 0 11.737 5.223 11.737 11.66v73.787c0 6.445-5.258 11.66-11.737 11.66m148.263 0c-6.479 0-11.737-5.215-11.737-11.66V85.968c0-6.437 5.258-11.66 11.737-11.66 6.48 0 11.738 5.223 11.738 11.66v73.787c0 6.445-5.259 11.66-11.738 11.66m-74.208 0c-6.479 0-11.737-5.215-11.737-11.66V30.985c0-6.444 5.258-11.66 11.737-11.66 6.48 0 11.738 5.216 11.738 11.66v128.77c0 6.445-5.259 11.66-11.738 11.66"></path><path fill="#FEFEFE" d="M92.308 437.355h252.608"></path><path fill="#2E2E30" d="M344.912 449.016h-252.6c-6.48 0-11.738-5.216-11.738-11.66 0-6.445 5.259-11.66 11.738-11.66h252.6c6.479 0 11.737 5.215 11.737 11.66 0 6.444-5.258 11.66-11.737 11.66"></path></g></svg>