<svg xmlns="http://www.w3.org/2000/svg" xmlns:xlink="http://www.w3.org/1999/xlink" width="512" height="512" id="kettle"><defs><path id="a" d="M1.112 55.351h262.125V2.216H1.112v53.135z"></path></defs><g fill="none" fill-rule="evenodd"><path fill="#B4814A" d="M328.263 162.37h-149.06l-28.658-63.516h206.384z"></path><path fill="#010202" d="m308.541 98.855-28.666 63.515h48.387l28.666-63.515z" opacity=".15"></path><path fill="#2E2E30" d="M185.903 151.993h135.663l19.3-42.758H166.604l19.3 42.758Zm142.361 20.757H179.205c-4.078 0-7.77-2.394-9.449-6.11l-28.659-63.508a10.386 10.386 0 0 1 .74-9.901 10.35 10.35 0 0 1 8.71-4.753h206.376a10.35 10.35 0 0 1 8.71 4.753 10.386 10.386 0 0 1 .74 9.901l-28.66 63.509a10.372 10.372 0 0 1-9.449 6.11Z"></path><path fill="#B4814A" d="M328.263 162.37h-149.06l-28.658 63.515h206.384z"></path><path fill="#010202" d="M328.263 162.37h-48.387l28.666 63.515h48.387z" opacity=".15"></path><path fill="#2E2E30" d="M166.604 215.507h174.262l-19.3-42.759H185.903l-19.3 42.759Zm190.32 20.757H150.545a10.35 10.35 0 0 1-8.71-4.754 10.371 10.371 0 0 1-.739-9.894l28.659-63.515a10.372 10.372 0 0 1 9.45-6.11h149.058c4.079 0 7.77 2.394 9.45 6.11l28.658 63.515a10.371 10.371 0 0 1-.74 9.894 10.35 10.35 0 0 1-8.709 4.754Z"></path><path fill="#FEFEFE" d="m126.775 17.299 47.15 81.553h159.621l47.15-81.553z"></path><path fill="#010202" d="m332.307 17.299-47.15 81.553h48.388l47.15-81.553z" opacity=".15"></path><path fill="#2E2E30" d="M179.902 88.48h147.663l35.15-60.804H144.751l35.15 60.804Zm153.649 20.757H173.923a10.37 10.37 0 0 1-8.98-5.183l-47.142-81.56a10.385 10.385 0 0 1-.007-10.378 10.36 10.36 0 0 1 8.98-5.196h253.92c3.704 0 7.126 1.978 8.986 5.196a10.419 10.419 0 0 1-.007 10.378l-47.15 81.56a10.358 10.358 0 0 1-8.972 5.183Z"></path><path fill="#FEFEFE" d="M337.693 225.883H169.777l-68.667 166.92c-13.818 34.974 11.93 72.883 49.506 72.883H356.855c37.575 0 63.324-37.909 49.506-72.884l-68.668-166.919Z"></path><path fill="#513A2B" d="M101.106 392.802c-13.818 34.975 11.938 72.883 49.507 72.883h206.245c37.569 0 63.318-37.908 49.507-72.883l-21.014-51.076H122.12l-21.014 51.076Z"></path><path fill="#010202" d="m406.363 392.802-68.667-166.92h-48.387l68.668 166.92c13.817 34.975-11.938 72.883-49.507 72.883h48.387c37.569 0 63.324-37.908 49.506-72.883" opacity=".15"></path><path fill="#2E2E30" d="m176.723 236.264-66.034 160.491c-5.247 13.284-3.63 27.835 4.479 39.77 8.108 11.935 21.028 18.778 35.447 18.778H356.86c14.42 0 27.339-6.843 35.44-18.778 8.108-11.935 9.726-26.486 4.424-39.901l-65.979-160.36H176.723ZM356.86 476.06H150.615a63.543 63.543 0 0 1-52.597-27.863 63.636 63.636 0 0 1-6.553-59.212l68.724-167.05a10.38 10.38 0 0 1 9.587-6.428h167.916c4.203 0 7.984 2.54 9.588 6.428l68.667 166.919c7.811 19.76 5.364 41.894-6.497 59.343a63.54 63.54 0 0 1-52.59 27.863Z"></path><path fill="#FEFEFE" d="M348.993 498.063h-190.52c-14.045 0-25.437-18.322-25.437-32.381H374.43c0 14.06-11.392 32.38-25.438 32.38"></path><g transform="translate(121.562 453.088)"><mask id="b" fill="#fff"><use xlink:href="#a"></use></mask><path fill="#2E2E30" d="M24.386 22.973c2.986 6.386 8.087 11.624 12.525 11.624h190.52c4.444 0 9.545-5.238 12.532-11.624H24.386Zm203.044 32.38H36.91c-20.156 0-35.798-22.991-35.798-42.758 0-5.73 4.645-10.379 10.368-10.379h241.388c5.724 0 10.369 4.65 10.369 10.379 0 19.767-15.643 42.758-35.807 42.758Z" mask="url(#b)"></path></g><path fill="#010202" d="M326.043 465.683c0 14.06-11.391 32.38-25.437 32.38h48.386c14.046 0 25.438-18.32 25.438-32.38h-48.387Z" opacity=".15"></path><path fill="#FEFEFE" d="M377.31 161.697c0 10.371-8.398 18.777-18.76 18.777-10.368 0-18.767-8.406-18.767-18.777 0-10.372 8.399-18.778 18.767-18.778 10.362 0 18.76 8.406 18.76 18.778"></path><path fill="#2E2E30" d="M358.545 153.29c-4.625 0-8.392 3.772-8.392 8.407 0 4.636 3.767 8.407 8.392 8.407 4.631 0 8.398-3.771 8.398-8.407 0-4.635-3.767-8.406-8.398-8.406m0 37.57c-16.058 0-29.13-13.084-29.13-29.164 0-16.08 13.072-29.163 29.13-29.163 16.064 0 29.135 13.084 29.135 29.163 0 16.08-13.07 29.163-29.135 29.163"></path><path fill="#2E2E30" d="M410.158 259.926c-.421 0-.836-.028-1.265-.076-5.682-.692-9.732-5.86-9.041-11.555 1.977-16.26-2.019-29.032-7.887-38.677.567 16.682-5.012 28.029-5.406 28.81-2.592 5.114-8.834 7.155-13.942 4.56-5.08-2.58-7.127-8.78-4.59-13.88.512-1.072 10.14-21.974-6.297-47.345a10.39 10.39 0 0 1 .864-12.44 10.36 10.36 0 0 1 12.173-2.637c18.304 8.435 51.4 36.871 45.67 84.114-.636 5.258-5.108 9.126-10.279 9.126M129.065 352.102l-18.373 44.654c-5.247 13.285-3.636 27.835 4.472 39.77 8.108 11.935 21.027 18.778 35.447 18.778h206.245c14.42 0 27.339-6.843 35.447-18.778 8.108-11.935 9.719-26.485 4.424-39.901l-18.325-44.523H129.065Zm227.791 123.96H150.611a63.531 63.531 0 0 1-52.59-27.863 63.616 63.616 0 0 1-6.553-59.213l21.062-51.213a10.38 10.38 0 0 1 9.588-6.428h263.23c4.204 0 7.985 2.54 9.588 6.428l21.014 51.082c7.811 19.76 5.357 41.894-6.498 59.344a63.543 63.543 0 0 1-52.596 27.862Z"></path></g></svg>