<svg xmlns="http://www.w3.org/2000/svg" width="512" height="512" id="mug"><g fill="none" fill-rule="evenodd"><path fill="#FEFEFE" d="M307.158 499H98.439c-23.623 0-42.773-19.15-42.773-42.773V125.589h294.265v330.638c0 23.623-19.15 42.773-42.773 42.773"></path><path fill="#010202" d="M300.15 125.585V456.23c0 23.624-19.15 42.767-42.772 42.767h49.777c23.623 0 42.774-19.143 42.774-42.767V125.585H300.15Z" opacity=".15"></path><path fill="#2E2E30" d="M66.333 136.254v319.979c0 17.7 14.4 32.1 32.107 32.1h208.718c17.7 0 32.107-14.4 32.107-32.1v-319.98H66.333Zm240.825 373.411H98.44c-29.468 0-53.44-23.971-53.44-53.432V125.587c0-5.895 4.779-10.666 10.667-10.666h294.265c5.888 0 10.666 4.771 10.666 10.666v330.646c0 29.46-23.971 53.432-53.44 53.432Z"></path><path fill="#FEFEFE" d="M349.928 191.21v39.047c64.256 0 67.812 30.365 67.812 67.812 0 37.454-30.358 60.7-67.812 60.7v39.054c59.015 0 106.859-40.732 106.859-99.754 0-59.015-11.79-106.859-106.859-106.859"></path><path fill="#010202" d="M349.928 191.21v39.047c64.256 0 67.812 30.365 67.812 67.812 0 37.454-30.358 60.7-67.812 60.7v39.054c59.015 0 106.859-40.732 106.859-99.754 0-59.015-11.79-106.859-106.859-106.859" opacity=".15"></path><path fill="#2E2E30" d="M360.598 368.872v17.785c49.443-4.608 85.525-41.152 85.525-88.59 0-50.44-6.656-92.559-85.525-95.972v17.785c62.407 3.541 67.811 38.962 67.811 78.186 0 38.052-27.932 66.496-67.811 70.806m-10.667 39.616c-5.888 0-10.667-4.779-10.667-10.667v-39.047c0-5.895 4.779-10.667 10.667-10.667 33.643 0 57.145-20.58 57.145-50.04 0-36.495-2.653-57.145-57.145-57.145-5.888 0-10.667-4.772-10.667-10.667v-39.047c0-5.888 4.779-10.667 10.667-10.667 103.289 0 117.525 56.484 117.525 117.525 0 62.955-50.524 110.422-117.525 110.422"></path><path fill="#B4814A" d="M241.725 271.2c21.682 27.74 21.831 63.85.335 80.654-21.504 16.804-56.505 7.936-78.194-19.804-21.682-27.74-21.831-63.85-.327-80.654 21.497-16.804 56.505-7.936 78.186 19.804"></path><path fill="#2E2E30" d="M189.334 253.56c-7.353 0-14.01 2.154-19.229 6.243-16.832 13.156-15.858 42.617 2.169 65.678 11.67 14.934 28.523 24.214 43.982 24.214 7.353 0 14.01-2.162 19.229-6.244 7.744-6.052 11.982-15.915 11.932-27.776-.05-12.885-5.056-26.347-14.094-37.91-11.677-14.933-28.53-24.206-43.99-24.206m26.923 117.469c-22.208 0-44.928-12.117-60.793-32.405-25.265-32.335-24.597-75.229 1.5-95.63 9.018-7.048 20.21-10.767 32.37-10.767 22.209 0 44.936 12.117 60.793 32.405 11.94 15.268 18.553 33.366 18.624 50.959.079 18.602-7.068 34.467-20.124 44.672-9.017 7.04-20.21 10.766-32.37 10.766"></path><path fill="#B4814A" d="M169.937 247.332s3.527 46.97 32.86 54.294c23.759 5.93 31.119 53.056 31.119 53.056"></path><path fill="#2E2E30" d="M233.903 365.344c-5.155 0-9.692-3.755-10.517-9.01-2.077-13.098-10.475-41.194-23.168-44.359-36.388-9.08-40.754-61.61-40.918-63.843-.44-5.874 3.961-10.994 9.842-11.435 5.767-.413 10.987 3.954 11.435 9.827.057.655 3.755 39.503 24.803 44.75 29.768 7.432 38.208 56.221 39.076 61.76.903 5.818-3.065 11.265-8.882 12.175-.562.092-1.116.135-1.67.135M135.43 94.424c-5.888 0-10.667-4.772-10.667-10.667V41.879c0-5.895 4.779-10.666 10.667-10.666s10.666 4.771 10.666 10.666v41.878c0 5.895-4.778 10.666-10.666 10.666m134.736 0c-5.888 0-10.667-4.771-10.667-10.666V41.879c0-5.895 4.779-10.666 10.667-10.666s10.667 4.771 10.667 10.666v41.878c0 5.895-4.78 10.666-10.667 10.666m-67.438 0c-5.888 0-10.666-4.771-10.666-10.666V10.669c0-5.895 4.778-10.667 10.666-10.667 5.888 0 10.667 4.772 10.667 10.667v73.088c0 5.895-4.779 10.666-10.667 10.666"></path><path fill="#010202" d="M241.725 271.2c-6.549-8.378-14.321-15.005-22.57-19.755 15.559 26.197 13.774 56.867-5.54 71.964-15.004 11.726-36.58 10.923-55.623-.05 1.756 2.959 3.676 5.874 5.88 8.69 21.683 27.74 56.684 36.608 78.188 19.805 21.496-16.804 21.347-52.914-.335-80.655" opacity=".15"></path></g></svg>